<mxfile host="app.diagrams.net" modified="2024-07-16T15:02:09.613Z" agent="Mozilla/5.0 (Windows NT 10.0; Win64; x64) AppleWebKit/537.36 (KHTML, like Gecko) Chrome/126.0.0.0 Safari/537.36" version="24.5.5" etag="QMN65_uY12mFLVRVd1vD" type="github">
  <diagram name="第 1 页" id="sBw8oyINrYgJ5OaQSIOL">
    <mxGraphModel>
      <root>
        <mxCell id="0" />
        <mxCell id="1" parent="0" />
      </root>
    </mxGraphModel>
  </diagram>
</mxfile>
